<?xml version="1.0" encoding="UTF-8" standalone="no"?>
<!-- Created with Inkscape (http://www.inkscape.org/) -->
<svg
   xmlns:dc="http://purl.org/dc/elements/1.1/"
   xmlns:cc="http://creativecommons.org/ns#"
   xmlns:rdf="http://www.w3.org/1999/02/22-rdf-syntax-ns#"
   xmlns:svg="http://www.w3.org/2000/svg"
   xmlns="http://www.w3.org/2000/svg"
   xmlns:sodipodi="http://sodipodi.sourceforge.net/DTD/sodipodi-0.dtd"
   xmlns:inkscape="http://www.inkscape.org/namespaces/inkscape"
   width="64px"
   height="64px"
   id="svg2383"
   sodipodi:version="0.32"
   inkscape:version="0.46"
   sodipodi:docname="back.svg"
   inkscape:output_extension="org.inkscape.output.svg.inkscape">
  <defs
     id="defs2385">
    <inkscape:perspective
       sodipodi:type="inkscape:persp3d"
       inkscape:vp_x="0 : 32 : 1"
       inkscape:vp_y="0 : 1000 : 0"
       inkscape:vp_z="64 : 32 : 1"
       inkscape:persp3d-origin="32 : 21.333333 : 1"
       id="perspective2391" />
  </defs>
  <sodipodi:namedview
     id="base"
     pagecolor="#ffffff"
     bordercolor="#666666"
     borderopacity="1.0"
     inkscape:pageopacity="0.0"
     inkscape:pageshadow="2"
     inkscape:zoom="7.7781746"
     inkscape:cx="31.84024"
     inkscape:cy="33.011813"
     inkscape:current-layer="layer1"
     showgrid="true"
     inkscape:document-units="px"
     inkscape:grid-bbox="true"
     inkscape:window-width="1600"
     inkscape:window-height="825"
     inkscape:window-x="0"
     inkscape:window-y="25" />
  <metadata
     id="metadata2388">
    <rdf:RDF>
      <cc:Work
         rdf:about="">
        <dc:format>image/svg+xml</dc:format>
        <dc:type
           rdf:resource="http://purl.org/dc/dcmitype/StillImage" />
      </cc:Work>
    </rdf:RDF>
  </metadata>
  <g
     id="layer1"
     inkscape:label="Layer 1"
     inkscape:groupmode="layer">
    <path
       style="fill:none;fill-rule:evenodd;stroke:#000000;stroke-width:1px;stroke-linecap:butt;stroke-linejoin:miter;stroke-opacity:1"
       d="M 26.227233,10.259885 L 26.227233,49.729299 L 4.1140758,28.001836 L 26.227233,10.259885 z"
       id="path2403" />
    <rect
       style="fill:#0000ff;fill-rule:evenodd;stroke:#000000;stroke-width:1px;stroke-linecap:butt;stroke-linejoin:miter;stroke-opacity:1"
       id="rect2405"
       width="33.555431"
       height="15.170653"
       x="26.355799"
       y="21.445028" />
    <path
       style="fill:#0000ff;fill-opacity:1"
       d="M 15.37108,38.272604 C 9.7142259,32.719547 5.0858907,28.124867 5.0858907,28.062209 C 5.0858907,27.99955 9.7142259,24.23374 15.37108,19.69374 L 25.65627,11.439197 L 25.68926,20.722354 C 25.7074,25.828092 25.7074,34.137315 25.68926,39.187297 L 25.65627,48.369082 L 15.37108,38.272604 z"
       id="path2427" />
    <path
       style="fill:#0000ff;fill-opacity:1"
       id="path2429"
       d="M 27.077788,22.291761 C 27.067522,22.684241 27.071909,23.076939 27.074095,23.4695 C 27.075905,23.757474 27.076758,24.045451 27.077187,24.33343 C 27.077475,24.590394 27.077446,24.847359 27.07744,25.104323 C 27.068408,25.329435 27.132844,25.547657 27.165505,25.768793 C 27.172171,25.992129 27.232636,26.205553 27.276109,26.423034 C 27.317152,26.662968 27.319063,26.905696 27.361824,27.145318 C 27.415534,27.402766 27.439588,27.664379 27.453468,27.926551 C 27.464204,28.185057 27.463882,28.443849 27.464065,28.702528 C 27.463912,28.959703 27.463512,29.216879 27.463308,29.474054 C 27.46313,29.731163 27.46311,29.988271 27.463095,30.24538 C 27.463086,30.502508 27.463091,30.759635 27.463093,31.016763 C 27.463095,31.273893 27.463096,31.531023 27.463096,31.788153 C 27.476239,32.024706 27.456064,32.256693 27.425755,32.490442 C 27.424209,32.689979 27.443532,32.889175 27.45198,33.088557 L 25.753443,33.962836 C 25.745221,33.757456 25.729513,33.552749 25.714416,33.347808 C 25.716632,33.238584 25.752489,33.147156 25.76276,33.040212 C 25.774994,32.912824 25.753004,32.782144 25.76276,32.654518 C 25.762759,32.397388 25.762759,32.140259 25.762757,31.883129 C 25.762755,31.625999 25.762751,31.368868 25.762754,31.111737 C 25.762762,30.85459 25.762769,30.597443 25.762909,30.340296 C 25.763076,30.083164 25.763389,29.826033 25.763741,29.568901 C 25.763888,29.312852 25.764709,29.056738 25.757212,28.800771 C 25.747124,28.546727 25.729806,28.292506 25.677782,28.043011 C 25.630993,27.803761 25.616509,27.564885 25.589912,27.322853 C 25.549332,27.1015 25.477079,26.886835 25.475298,26.659711 C 25.445168,26.429308 25.374539,26.203739 25.377027,25.970726 C 25.377021,25.713676 25.376992,25.456626 25.37728,25.199575 C 25.37771,24.910547 25.378566,24.621519 25.380372,24.332495 C 25.382538,23.941189 25.387009,23.549742 25.376679,23.15852 L 27.077788,22.291761 z" />
    <rect
       style="fill:#0000ff;fill-opacity:1"
       id="rect2433"
       width="11.827968"
       height="6.8139381"
       x="21.598898"
       y="22.216417" />
    <rect
       style="fill:#0000ff;fill-opacity:1"
       id="rect2435"
       width="5.0140305"
       height="2.0570376"
       x="23.141676"
       y="21.959288" />
    <rect
       style="fill:#0000ff;fill-opacity:1"
       id="rect2437"
       width="10.02806"
       height="5.5282893"
       x="22.113157"
       y="30.573133" />
  </g>
</svg>
